<?xml version="1.0" encoding="utf-8"?>
<!-- Generator: Adobe Illustrator 16.0.0, SVG Export Plug-In . SVG Version: 6.00 Build 0)  -->
<!DOCTYPE svg PUBLIC "-//W3C//DTD SVG 1.1//EN" "http://www.w3.org/Graphics/SVG/1.1/DTD/svg11.dtd">
<svg version="1.1" id="Layer_1" xmlns="http://www.w3.org/2000/svg" xmlns:xlink="http://www.w3.org/1999/xlink" x="0px" y="0px"
	 width="268px" height="122px" viewBox="0 0 268 122" enable-background="new 0 0 268 122" xml:space="preserve">
<circle cx="126" cy="61" r="61"/>
<circle fill="#BABABA" stroke="#727373" stroke-width="8" stroke-miterlimit="10" cx="126.307" cy="61.421" r="53.489"/>
<path fill="#BABABA" stroke="#727373" stroke-width="3" stroke-miterlimit="10" d="M91.698,99.344
	c-12.94-26.556-1.901-58.574,24.655-71.514c21.245-10.352,46.859-1.521,57.21,19.724c8.282,16.996,1.217,37.487-15.779,45.769
	c-13.597,6.625-29.99,0.973-36.615-12.624c-5.3-10.877-0.779-23.992,10.099-29.292c8.702-4.24,19.193-0.623,23.434,8.079
	c3.392,6.961,0.498,15.354-6.463,18.747c-5.569,2.713-12.284,0.399-14.998-5.17c-2.171-4.456-0.319-9.827,4.137-11.998
	c3.564-1.737,7.861-0.255,9.598,3.309"/>
<circle fill="#FFFFFF" cx="141.656" cy="68.421" r="9"/>
<path fill="#FFFFFF" d="M124.326,52v47.344C124.326,99.344,76.016,80.025,124.326,52z"/>
<rect x="97.698" y="56.728" fill="none" width="63.063" height="42.617"/>
<text transform="matrix(1 0 0 1 97.6982 94.3569)" font-family="'MyriadPro-Regular'" font-size="53">CP</text>
</svg>
